<?xml version="1.0" encoding="UTF-8"?>
<svg version="1.1" xmlns="http://www.w3.org/2000/svg" width="500" height="500">
<path d="M0 0 C165 0 330 0 500 0 C500 165 500 330 500 500 C335 500 170 500 0 500 C0 335 0 170 0 0 Z " fill="#0F0F0F" transform="translate(0,0)"/>
<path d="M0 0 C2.75746999 3.30538577 5.02895473 6.58942457 7.1015625 10.359375 C7.9522229 11.89549438 7.9522229 11.89549438 8.82006836 13.46264648 C9.4156958 14.54747314 10.01132324 15.6322998 10.625 16.75 C14.65708274 24.02314293 18.69013149 31.28750712 22.9375 38.4375 C29.06492175 48.76374164 35.03947818 59.17765408 41.03125 69.58300781 C42.97706866 72.96020003 44.92552291 76.33585596 46.875 79.7109375 C57.38982399 97.91694928 57.38982399 97.91694928 62.44946289 106.80761719 C67.99800318 116.55723585 73.65112679 126.24247999 79.33764648 135.91195679 C86.10802154 147.42936553 92.74993836 159.01691858 99.36328125 170.625 C102.83430363 176.71659484 106.33647343 182.78944318 109.85571289 188.85327148 C113.04516129 194.3488727 116.22164486 199.85181942 119.39379883 205.35742188 C125.02487173 215.13065439 130.68038745 224.8886488 136.375 234.625 C140.40445738 241.52483297 144.42706782 248.42811164 148.375 255.375 C148.93840088 256.35654053 148.93840088 256.35654053 149.51318359 257.35791016 C152 261.76542865 152 261.76542865 152 264 C151.13945212 263.97178067 151.13945212 263.97178067 150.26151943 263.94299126 C136.23749697 263.49222845 122.2165397 263.18851458 108.18591976 263.04403496 C101.39945204 262.97068377 94.62051141 262.84877283 87.83764648 262.61132812 C59.89881 259.92080705 59.89881 259.92080705 34.16101074 267.43075562 C28.37515301 272.94119621 25.90036313 280.31762011 23.89321899 287.86889648 C22.70573823 292.0315097 20.77733206 295.31489951 18.4296875 298.91015625 C17.82382812 299.95880859 17.21796875 301.00746094 16.59375 302.08789062 C15.4093733 304.13766984 14.22444468 306.18713021 13.0390625 308.23632812 C9.63678494 314.12744568 6.27870197 320.03915071 3 326 C-0.94209538 324.68596821 -1.30057532 323.21143347 -3.30078125 319.62109375 C-4.26226074 317.91409302 -4.26226074 317.91409302 -5.24316406 316.17260742 C-5.93297961 314.92759206 -6.6227574 313.68255578 -7.3125 312.4375 C-8.38423068 310.52701151 -9.45925002 308.61839714 -10.53433228 306.70979309 C-11.26780857 305.40700201 -12.00019963 304.10359938 -12.73153687 302.79960632 C-16.33121283 296.38575345 -20.03023952 290.03250401 -23.75 283.6875 C-25.37324483 280.91541983 -26.99618738 278.14318651 -28.61523438 275.36865234 C-29.49679236 273.86074056 -30.38301176 272.35553725 -31.27539062 270.85400391 C-34 266.21954356 -34 266.21954356 -34 264 C-72.61 264 -111.22 264 -151 264 C-149.51189492 259.53568477 -148.25529441 256.40679593 -145.9453125 252.46484375 C-145.33655273 251.4188501 -144.72779297 250.37285645 -144.10058594 249.29516602 C-143.1226709 247.63312134 -143.1226709 247.63312134 -142.125 245.9375 C-141.44501269 244.77241878 -140.76565836 243.60696791 -140.08691406 242.44116211 C-139.05399865 240.66729605 -138.02066363 238.89368935 -136.98522949 237.12129211 C-133.87026051 231.7890078 -130.80464747 226.42948714 -127.75 221.0625 C-120.5247297 208.39674471 -113.21242482 195.78264475 -105.85522461 183.19311523 C-100.39456444 173.84760027 -94.97052591 164.48344736 -89.61181641 155.07910156 C-80.8823572 139.76436198 -72.04014232 124.51394788 -63.20288086 109.26123047 C-59.29364983 102.51225468 -55.39642746 95.75637404 -51.5 89 C-44.91503353 77.5821444 -38.31513772 66.17302847 -31.70703125 54.76855469 C-30.38783083 52.49164645 -29.06883873 50.21461775 -27.75 47.9375 C-27.08871094 46.79571289 -27.08871094 46.79571289 -26.4140625 45.63085938 C-21.72894078 37.53777482 -17.058235 29.43637242 -12.38964844 21.33374023 C-8.2824175 14.20918911 -4.1503249 7.09953244 0 0 Z " fill="#FDFDFD" transform="translate(250,87)"/>
<path d="M0 0 C16.83 0 33.66 0 51 0 C53.10375 3.774375 55.2075 7.54875 57.375 11.4375 C62.40732855 20.44284259 67.52626771 29.38562661 72.7890625 38.2578125 C75.46922563 42.778431 78.06035984 47.34856374 80.65625 51.91796875 C82.5700207 55.26793736 84.51715106 58.59771999 86.46875 61.92578125 C87.09040039 62.98659912 87.71205078 64.04741699 88.35253906 65.14038086 C89.5919081 67.25314467 90.8333545 69.36469163 92.07714844 71.47485352 C92.6549707 72.46026123 93.23279297 73.44566895 93.828125 74.4609375 C94.3427832 75.33540527 94.85744141 76.20987305 95.38769531 77.11083984 C97.37760019 80.67663849 99.1738214 84.3476428 101 88 C67.67 88 34.34 88 0 88 C2.24885037 81.25344889 2.24885037 81.25344889 3.99609375 78.36328125 C4.38490723 77.71262695 4.7737207 77.06197266 5.17431641 76.39160156 C5.59116699 75.70549805 6.00801758 75.01939453 6.4375 74.3125 C7.32975201 72.81399551 8.22166567 71.31528951 9.11328125 69.81640625 C10.58679487 67.35445503 12.06355044 64.89453801 13.54443359 62.43701172 C15.08109836 59.88038992 16.60373731 57.3158083 18.125 54.75 C18.61025146 53.95247314 19.09550293 53.15494629 19.59545898 52.33325195 C20.04091064 51.57874756 20.4863623 50.82424316 20.9453125 50.046875 C21.34250488 49.38526367 21.73969727 48.72365234 22.14892578 48.04199219 C23.20303025 45.51286718 23.26131519 43.71913425 23 41 C21.6918235 38.40431796 20.34497604 36.01892631 18.8125 33.5625 C17.90470681 32.0626459 16.99716844 30.56263756 16.08984375 29.0625 C15.59726074 28.25683594 15.10467773 27.45117188 14.59716797 26.62109375 C11.65331005 21.7899628 8.76515386 16.92587366 5.875 12.0625 C5.29468018 11.09707275 4.71436035 10.13164551 4.11645508 9.13696289 C3.58044678 8.2371167 3.04443848 7.33727051 2.4921875 6.41015625 C2.01120605 5.60715088 1.53022461 4.80414551 1.03466797 3.97680664 C0 2 0 2 0 0 Z " fill="#313131" transform="translate(203,185)"/>
<path d="M0 0 C33 0 66 0 100 0 C98.48465618 4.54603146 97.13440907 7.81708965 94.796875 11.8671875 C94.15355225 12.98754395 93.51022949 14.10790039 92.84741211 15.26220703 C92.14842359 16.46655776 91.44928235 17.67081986 90.75 18.875 C90.02505888 20.13241165 89.30053673 21.39006494 88.57641602 22.64794922 C86.39255507 26.43678802 84.19801917 30.21936085 82 34 C81.37915527 35.06798828 80.75831055 36.13597656 80.11865234 37.23632812 C77.83240353 41.1642948 75.54356556 45.09069127 73.24584961 49.01196289 C70.10089622 54.38101148 66.98358712 59.76442079 63.8984375 65.16796875 C63.20977527 66.37161549 62.52105504 67.57522904 61.83227539 68.77880859 C60.51120678 71.08750216 59.19634116 73.39938016 57.88452148 75.71337891 C57.28969971 76.75284668 56.69487793 77.79231445 56.08203125 78.86328125 C55.55843018 79.78407471 55.0348291 80.70486816 54.49536133 81.65356445 C53.15459929 83.75741162 51.84405835 85.33707605 50 87 C40.19845007 70.44114624 30.61166667 53.75886971 21.01953125 37.078125 C19.72160583 34.82277182 18.4234331 32.56756094 17.125 30.3125 C16.50133545 29.22904297 15.8776709 28.14558594 15.23510742 27.02929688 C11.09298314 19.84983596 6.87130828 12.7264223 2.5390625 5.66015625 C1 3 1 3 0 0 Z " fill="#020202" transform="translate(202,278)"/>
<path d="M0 0 C0.2693335 0.55453857 0.53866699 1.10907715 0.81616211 1.68041992 C2.10859735 4.21278273 3.50850146 6.65760422 4.94140625 9.11328125 C5.52132324 10.1077124 6.10124023 11.10214355 6.69873047 12.12670898 C7.31377441 13.17802002 7.92881836 14.22933105 8.5625 15.3125 C9.18785645 16.3837915 9.81321289 17.45508301 10.45751953 18.55883789 C14.42114095 25.3373749 18.41753524 32.09448446 22.51000977 38.79614258 C25 42.89613854 25 42.89613854 25 44 C8.83 44 -7.34 44 -24 44 C-23.01005729 39.05028645 -21.32330887 35.76908036 -18.75 31.5625 C-17.85134052 30.06523737 -16.95291576 28.56783386 -16.0546875 27.0703125 C-15.56838867 26.2649707 -15.08208984 25.45962891 -14.58105469 24.62988281 C-11.647877 19.75091585 -8.76630977 14.84134914 -5.875 9.9375 C-4.74767653 8.02978201 -3.62009579 6.12221602 -2.4921875 4.21484375 C-2.01120605 3.40136475 -1.53022461 2.58788574 -1.03466797 1.74975586 C-0.69322754 1.17233643 -0.35178711 0.59491699 0 0 Z " fill="#010101" transform="translate(228,228)"/>
</svg>
